<?xml version="1.0" encoding="UTF-8" standalone="no"?>
<!-- Created with Inkscape (http://www.inkscape.org/) -->
<svg
   xmlns:dc="http://purl.org/dc/elements/1.1/"
   xmlns:cc="http://creativecommons.org/ns#"
   xmlns:rdf="http://www.w3.org/1999/02/22-rdf-syntax-ns#"
   xmlns:svg="http://www.w3.org/2000/svg"
   xmlns="http://www.w3.org/2000/svg"
   xmlns:sodipodi="http://sodipodi.sourceforge.net/DTD/sodipodi-0.dtd"
   xmlns:inkscape="http://www.inkscape.org/namespaces/inkscape"
   width="210mm"
   height="297mm"
   id="svg3037"
   sodipodi:version="0.32"
   inkscape:version="0.46"
   sodipodi:docname="wave-logo.svg"
   inkscape:output_extension="org.inkscape.output.svg.inkscape">
  <defs
     id="defs3039">
    <inkscape:perspective
       sodipodi:type="inkscape:persp3d"
       inkscape:vp_x="0 : 526.18109 : 1"
       inkscape:vp_y="0 : 1000 : 0"
       inkscape:vp_z="744.09448 : 526.18109 : 1"
       inkscape:persp3d-origin="372.04724 : 350.78739 : 1"
       id="perspective3045" />
  </defs>
  <sodipodi:namedview
     id="base"
     pagecolor="#ffffff"
     bordercolor="#666666"
     borderopacity="1.0"
     inkscape:pageopacity="0.0"
     inkscape:pageshadow="2"
     inkscape:zoom="2"
     inkscape:cx="352.80022"
     inkscape:cy="764.46383"
     inkscape:document-units="px"
     inkscape:current-layer="layer1"
     showgrid="false"
     inkscape:window-width="640"
     inkscape:window-height="667"
     inkscape:window-x="291"
     inkscape:window-y="101" />
  <metadata
     id="metadata3042">
    <rdf:RDF>
      <cc:Work
         rdf:about="">
        <dc:format>image/svg+xml</dc:format>
        <dc:type
           rdf:resource="http://purl.org/dc/dcmitype/StillImage" />
      </cc:Work>
    </rdf:RDF>
  </metadata>
  <g
     inkscape:label="Ebene 1"
     inkscape:groupmode="layer"
     id="layer1">
    <g
       id="g2383"
       style="opacity:1;fill:#ff0000;stroke:#000000;stroke-width:4;stroke-linejoin:round;stroke-miterlimit:4;stroke-dasharray:none;stroke-opacity:1"
       transform="translate(-55.67995,223.64353)"
       inkscape:export-filename="C:\Dokumente und Einstellungen\jens.gulden\Desktop\wave-logo.png"
       inkscape:export-xdpi="50"
       inkscape:export-ydpi="50">
      <path
         d="M 411.8125,55 C 385.45086,54.028089 345.97691,83.863749 363.84375,110.03125 C 393.407,123.40474 420.8914,71.496004 448.81695,99.571584 C 464.8781,110.62073 508.20099,122.08782 503.59375,89.6875 C 489.9958,53.775693 442.52161,60.079735 411.8125,55 z"
         style="fill:#e9e9ff;fill-rule:evenodd;stroke:none;stroke-width:1px;stroke-linecap:butt;stroke-linejoin:round;stroke-opacity:1"
         id="path2399" />
      <path
         d="M 341.0625,93.15625 C 281.53147,113.67861 259.40344,193.70919 279.75,247.8125 C 311.13681,254.37661 311.25054,210.21335 330.375,195.21875 C 349.31542,167.34466 374.11688,118.88398 341.0625,93.15625 z"
         style="fill:#353564;fill-rule:evenodd;stroke:none;stroke-width:1px;stroke-linecap:butt;stroke-linejoin:round;stroke-opacity:1"
         id="path2401" />
      <path
         d="M 402.90625,-24.75 C 332.7717,-12.010792 309.48227,65.963123 289.6875,124.53125 C 278.28256,150.76901 306.22737,114.82064 315.1875,109.09375 C 356.55299,66.461883 419.39344,29.314488 479.21875,56.65625 C 484.28096,44.046758 461.40204,27.736234 455.875,14.9375 C 442.73704,-2.4876167 426.4238,-23.331434 402.90625,-24.75 z"
         style="fill:#4d4d9f;fill-rule:evenodd;stroke:none;stroke-width:1px;stroke-linecap:butt;stroke-linejoin:round;stroke-opacity:1"
         id="path2403" />
      <path
         d="M 420.84375,72.25 C 358.25691,75.835957 336.98617,145.67298 316.34282,193.84122 C 310.70348,209.75097 296.16165,236.47915 295.39606,246.30168 C 329.75109,187.75471 360.63876,106.80265 437.3125,96.5625 C 449.50459,92.157599 470.79966,105.58891 476.68511,99.397502 C 459.91273,87.433779 442.27962,73.365162 420.84375,72.25 z"
         style="fill:#afafde;fill-rule:evenodd;stroke:none;stroke-width:1px;stroke-linecap:butt;stroke-linejoin:round;stroke-opacity:1"
         id="path2405" />
      <path
         d="M 419,-7.875 C 407.87903,43.647232 447.39189,103.37066 498.59375,112.03125 C 519.59521,99.179081 490.69595,74.427893 486.65243,58.595999 C 471.106,34.069786 452.6476,-8.1807949 419,-7.875 z"
         style="fill:#d7d7ff;fill-rule:evenodd;stroke:none;stroke-width:1px;stroke-linecap:butt;stroke-linejoin:round;stroke-opacity:1"
         id="path2407" />
      <path
         d="M 403.28125,-23.71875 C 340.06723,15.307662 306.2564,86.83238 280.75,149.65625 C 271.2677,180.66338 258.38049,222.44178 290.21875,244.78125 C 314.77028,159.9185 384.47291,98.09191 421.4375,20.21875 C 420.12312,6.4100495 423.75578,-23.068094 403.28125,-23.71875 z"
         style="fill:#8686bf;fill-rule:evenodd;stroke:none;stroke-width:1px;stroke-linecap:butt;stroke-linejoin:round;stroke-opacity:1"
         id="path2409"
         sodipodi:nodetypes="ccccc" />
    </g>
  </g>
</svg>
